<?xml version="1.0" encoding="UTF-8"?>
<svg xmlns="http://www.w3.org/2000/svg" version="1.1" viewBox="0 0 1500 1500">
  <defs>
    <style>
      .cls-1 {
        fill: #fff;
      }
    </style>
  </defs>
  <!-- Generator: Adobe Illustrator 28.7.1, SVG Export Plug-In . SVG Version: 1.2.0 Build 142)  -->
  <g>
    <g id="Layer_1__x2B__Group_1_xA0_Image">
      <g>
        <path class="cls-1" d="M1259.92,836.47c.28-3.1.38-6.23.89-9.29,1.05-6.35,2.15-12.71,3.57-18.98,1.35-5.97,3.22-11.82,4.68-17.76,1.25-5.07,2.13-10.23,3.38-15.29,1.73-6.97.47-14.57,5.18-20.96,2.19-2.98,3.7-6.75,4.52-10.39.9-3.99.68-8.24.87-12.38.02-.53-.73-1.38-.56-1.56,4.4-4.78-.36-10.88,2.31-16.02.56-1.07-1.39-3.2-1.44-4.87-.14-4.34.27-8.69.2-13.03-.15-9.28,5.9-16.96,6.39-26.12.7-13.06,5.52-25.31,8.12-37.99,1.77-8.61,2.59-17.41,4.11-26.08.75-4.26,2.32-8.38,3.13-12.63.72-3.76.67-7.66,1.37-11.43.74-3.96,2.06-7.8,2.96-11.73.62-2.71,1.08-5.46,1.4-8.22.7-6.15,1.05-12.35,1.93-18.47.93-6.47,2.22-12.88,3.51-19.29,1.11-5.54,1.65-11.39,3.9-16.46,1.78-4,2.36-7.29,1.96-11.65-.36-3.9,1.08-8.74,3.41-11.95,4.36-6.02,1.91-14.09,7.39-19.87,2.26-2.39,1.72-7.55,2.19-11.48.29-2.38.08-4.83.09-7.24,0-1.05-.32-2.26.09-3.12,3.69-7.79,4.6-16.11,5.45-24.55.45-4.4,2.57-8.61,3.7-12.97,1.81-7.02,3.32-14.13,5.18-21.14.84-3.15,2.49-6.09,3.28-9.25,1.21-4.82,2.06-9.74,2.95-14.64,1.45-7.92,2.95-15.84,4.16-23.8.77-5.11,1.04-10.29,1.47-14.66-2.47-1.08-4.33-1.89-6.18-2.7-.11-.52-.22-1.04-.32-1.56-4.78,4.23-10.05,8.02-14.23,12.76-9.34,10.58-18.12,21.65-27.19,32.46-.91,1.08-2.16,1.98-3.42,2.63-10.41,5.4-17.43,14.57-25.35,22.74-3.28,3.38-6.58,6.75-9.85,10.15-13.65,14.23-27.3,28.44-40.9,42.71-5.9,6.19-11.61,12.55-17.53,18.72-6,6.26-12,12.53-18.27,18.52-3.12,2.98-7.03,5.13-10.22,8.04-3.17,2.89-5.84,6.31-8.82,9.42-.78.81-1.88,1.3-2.83,1.95-1.12.77-2.39,1.38-3.3,2.34-3.09,3.28-6.01,6.71-9.09,9.99-.48.52-1.52.47-2.18.87-1.02.62-2.09,1.27-2.87,2.14-.76.85-1.02,2.15-1.78,3-5.81,6.51-11.55,13.08-17.58,19.37-5.34,5.57-10.55,11.48-16.78,15.9-3.52,2.5-4.79,7.72-10.28,8.08-1.41.09-2.54,3.6-3.89,5.47-1.64,2.26-3.23,4.56-5.09,6.63-6.33,7.05-12.62,14.15-19.21,20.94-3.98,4.1-8.7,7.49-12.75,11.53-3.68,3.67-6.85,7.84-10.34,11.72-1.95,2.16-4.11,4.12-6.11,6.25-2.38,2.54-4.58,5.25-7.03,7.71-7,7.02-14.03,14.01-21.19,20.88-2.82,2.7-6.25,4.79-8.92,7.62-2.54,2.68-4.15,6.23-6.7,8.9-4.56,4.79-9.72,9.01-14.26,13.82-7.37,7.8-14.26,16.05-21.74,23.74-2.33,2.39-5.71,4.04-8.91,5.23-3.78,1.41-7.87,2.06-11.87,2.82-1.59.3-4.34.59-4.77-.15-1.89-3.25-4.91-2-7.45-2.72-1.86-.53-3.34-2.29-5.05-3.41-2.1-1.37-1.5-3.19-1.56-5.26-.06-2.13-1.68-4.27-2.82-6.3-1.23-2.18-2.63-4.29-4.08-6.33-1.47-2.07-3.01-4.11-4.68-6.02-6.55-7.54-12.81-15.21-16.26-24.83-.92-2.57-3.26-4.61-4.75-7.01-6.6-10.7-12.73-21.72-19.82-32.09-4.12-6.02-8.01-12.02-11.55-18.41-4.18-7.55-10.92-13.72-14.93-21.34-5.67-10.79-13.92-20.05-18.58-31.22-2.16-5.17-7.18-7.36-9.15-12.26-2.17-5.4-4.64-10.58-8.9-14.91-1.92-1.95-1.96-5.62-3.42-8.19-2.12-3.76-4.82-7.18-7.14-10.84-1.23-1.94-2.15-4.07-3.23-6.1-3.02-5.68-5.47-11.53-7.68-17.61-1.77-4.88-6.42-8.64-9.25-13.23-3.75-6.09-7.21-12.39-10.32-18.83-1.31-2.71.77-6.98-3.32-8.53-7.29-2.78-7.96-10.71-12.48-15.63-2.66-2.9-4.85-6.24-7.12-9.47-1.45-2.05-2.54-4.35-4-6.39-4.22-5.9-8.54-11.73-12.82-17.59-.09-.12-.15-.3-.27-.35-4.98-2.05-5.84-7.34-8.49-11.16-1.94-2.8-2.81-6.37-4-9.66-.44-1.21-.45-2.59-.6-3.9-.23-2.06-.02-4.28-.71-6.17-1.37-3.72-2.37-8.28-5.12-10.59-3.12-2.61-5.76-4.77-6.66-8.88-.41-1.85-1.75-3.49-2.67-5.22-.61-.04-1.23-.07-1.84-.11-1.17,3.87-2.25,7.78-3.53,11.61-2.48,7.43-5.06,14.82-7.62,22.23-.19.55-.66,1.03-.75,1.58-1.26,7.39-5.83,13.43-8.24,20.31-2.38,6.79-2.77,14.45-6.02,20.7-3.44,6.63-3.75,13.74-5.98,20.46-.27.81-.85,1.52-1.43,2.52,2.79,1.04,5.49,2.05,8.73,3.25-.31,1.97.13,5.01-1.18,6.36-4.74,4.88-1.3,11.07-3.33,16.32-2.48,6.44-4.56,13.04-6.59,19.64-1.09,3.53-1.71,7.2-2.57,10.8-.24.99-.33,2.16-.93,2.89-4.05,4.96-3.34,11.11-4.53,16.82-1.26,6.08-3.05,12.06-4.66,18.06-1.34,4.99-2.67,9.99-4.2,14.93-.89,2.88-2.12,5.67-3.3,8.46-.48,1.13-1.6,2.1-1.79,3.24-1.6,9.77-4.84,18.95-8.96,27.94-2.97,6.5-5.25,13.35-7.34,20.2-1.17,3.84-1.09,8.06-2.03,11.99-1.08,4.49-2.81,8.83-4,13.3-.71,2.67-1.31,5.49-1.25,8.23.17,7.11-1.49,13.73-3.4,20.56-2.81,10.1-4.6,20.47-4.13,31.23.24,5.36-.46,11.44-5.57,15.41-.64.5-1.17,1.4-1.33,2.2-1.19,5.88-2.61,11.78-4.03,17.54-1.79,7.25-.94,15.19-6.14,21.93-2.86,3.71-2.8,9.62-4.29,14.46-.95,3.09-2.78,5.94-3.47,9.06-2.02,9.13-3.89,18.3-5.37,27.53-1.03,6.42-1.17,12.98-2,19.44-.36,2.83-1.43,5.57-2.16,8.36-.18.71-.65,1.6-.4,2.12,2.27,4.64-.39,8.84-1.04,13.21-.57,3.9-1.14,7.8-1.74,11.7-.2,1.29-.45,2.57-.71,3.85-.41,2.06-1.05,3.83.5,6.07,1.37,1.99,1.66,4.91,1.86,7.46.09,1.2-1.05,3.53-1.78,3.59-2.54.21-5.51.36-7.63-.77-3.32-1.77-6.59-4.19-8.98-7.07-4.8-5.78-11.12-8.76-17.79-11.46-1.29-.52-2.35-1.95-3.21-3.18-2.38-3.42-4.59-6.94-6.87-10.43-.4.24-.79.48-1.19.72,3.92,8.81,7.85,17.62,11.72,26.32-4.43,5.48-4.61,5.75-10.05,2.22-4.47-2.9-8.55-6.43-12.63-9.9-5.53-4.71-10.97-9.54-16.3-14.47-5.54-5.13-10.91-10.44-16.37-15.7-4.61,3.91-11.57,1.59-14.87-5.17-.63-1.28-1.32-2.65-2.33-3.61-6.41-6.07-13.09-11.86-19.33-18.08-5.58-5.56-10.65-11.64-16.08-17.36-4.23-4.45-8.78-8.6-12.99-13.07-6.6-7.01-12.62-14.62-19.62-21.19-13.94-13.08-28.39-25.62-42.6-38.41-4.59-4.14-9.08-8.38-13.62-12.58-8.19-7.59-16.19-15.37-24.59-22.71-11.45-10.01-22.8-20.2-34.98-29.26-6.22-4.63-11.28-11.45-19.66-12.94-.37-.07-.7-.55-.98-.9-2.73-3.53-6.04-5.83-10.22-7.92-6.09-3.04-11.09-8.28-16.57-12.56-.8-.63-1.61-1.33-2.53-1.72-4.67-1.94-8.34-4.77-9.43-10.05-.09-.43-.05-1.03-.32-1.28-5.36-4.95-10.65-9.98-16.18-14.73-3.53-3.04-7.62-5.44-11.1-8.53-3.45-3.08-2.76-8.32.68-11.96.83-.87,1.02-3.12.52-4.32-1.06-2.51-3.29-4.59-4.05-7.15-.61-2.03.23-4.5.43-6.78,2.2.19,4.88-.34,6.49.73,2.86,1.92,5.14,4.74,7.54,7.3,3.84,4.08,7.54,8.29,11.37,12.39,4.27,4.58,8.61,9.09,12.91,13.64.81.86,2.01,1.66,2.29,2.68.79,2.91,2.31,3.14,4.95,2.4,4.77-1.33,6.39.69,8.24,5.51.88,2.31,4.84,3.45,7.4,5.12.31-.32.62-.64.93-.95.48,2.09.96,4.17,1.43,6.21-1.45.42-2.51.73-4.44,1.3,5.42,4.25,10.29,8.08,15.13,11.88,4.63-5.41,7.94-5.66,12.8-1.63,3.47,2.88,6.82,5.93,10.47,8.57,2,1.44,4.66,5.03,6.54-.56.25-.75,3.3-1.34,4.51-.79,1.93.87,4.33,2.48,4.85,4.27.65,2.25-.4,4.99-.71,7.52-.42.18-.84.36-1.27.54,4.44,3.73,8.95,7.38,13.28,11.24,2.19,1.95,3.95,4.37,6.04,6.44,1.58,1.56,3.28,3.05,5.09,4.33,12.06,8.55,24.34,16.79,36.19,25.61,9.55,7.1,18.57,14.89,27.87,22.32,8.65,6.91,17.32,13.79,26.07,20.58,1.19.92,2.42,1.33,4.38.13,1.93-1.18,3.97-.97,6.54,2.1,3.24,3.88,3.5,9.02,8.22,12.56,8.09,6.07,14.13,14.81,21.38,22.08,4.7,4.72,9.99,8.85,15.09,13.17,2.12,1.8,4.44,3.36,6.62,5.11,3.22,2.58,6.53,5.08,9.52,7.9,1.88,1.77,3.07,4.26,4.93,6.05,1.22,1.17,3.51,2.71,4.58,2.27,3.29-1.34,3.81,1.63,5.23,2.87.55.49-.12,2.37-.27,3.98,1.37,2.31,8.17.48,5.76,6.6,4.23.56,12.87,8,13.79,11.99,5.67-1.22,7.94,3.35,10.99,6.68,1.15,1.26,2.3,2.53,3.3,3.63,1.68-4.52,3.22-8.18,4.36-11.97.33-1.1-.45-2.53-.49-2.72,1.78-5.68,3.33-10.56,4.82-15.45,1.23-4.07,2-8.33,3.71-12.18,1.14-2.57,3.56-4.58,5.52-6.97,1.14-4.13,2.39-8.66,3.64-13.19-.42-.21-.84-.42-1.26-.64-2.38,3.87-4.9,7.66-7.09,11.63-2.34,4.23-3.78,8.89-7.48,12.42-1.65,1.57-2.03,4.4-3.2,6.54-2.34,4.3-4.89,8.5-7.24,12.79-1.99,3.64-6.86,5.74-9.83,4.11-2.76-1.51-5.3-8.66-2.97-12.1,3.3-4.9,6.57-9.83,9.69-14.85,5.55-8.93,11.2-17.81,16.37-26.96,4.05-7.17,7.31-14.78,11.12-22.09,3.56-6.83,7.8-13.34,10.92-20.35,2.06-4.62,5.28-8.75,5.31-14.5.02-4.61,2.38-9.18,3.55-13.81,1.79-7.02,3.48-14.07,5.16-21.12,1.71-7.19,3.53-14.36,4.98-21.61,1.33-6.68,2.23-13.44,3.34-20.29-2.53-2.01-4.25-7.57-2.63-10.5.64-1.16,2.56-1.58,3.83-2.43,1.08-.72,2.19-1.46,3.08-2.39,6.05-6.34,3.31-15.32,6.82-22.69,2.73-5.73,2.69-12.78,4.01-19.21.36-1.77,1.24-3.43,1.76-5.18.16-.54,0-1.23-.17-1.81-.14-.52-.74-1.02-.67-1.47.53-3.73,1.22-7.44,1.74-11.18.41-2.93.52-5.9.99-8.82.66-4.03,1.47-8.04,2.34-12.03.92-4.24,1.98-8.45,2.98-12.68.1-.43.11-.92.33-1.27,2.03-3.22,4.11-6.41,6.27-9.78.19.32.58.98,1.15,1.95.74-1.48,1.64-2.78,2.05-4.22,1.79-6.27,3.38-12.59,5.14-18.86,1.55-5.53,2.98-11.12,4.93-16.51,1.8-4.98,4.23-9.74,6.37-14.6.29-.65.68-1.34.69-2.02.19-12.27,4.4-23.51,8.82-34.7.21-.53.15-1.17.2-1.77.61-7.12,1.72-7.72,8.83-9.68,2.04-.56,3.98-4.37,4.51-6.98,2.3-11.29,5.84-22.11,10.7-32.53.85-1.81,1.27-3.82,1.94-5.72,1.85-5.31,3.79-10.59,5.57-15.92,1.51-4.52,2.74-9.13,4.29-13.63,2.07-6.02,4.76-11.85,6.38-17.98,1.27-4.81,3.64-8.89,5.76-13.26,2.54-5.26,3.07-11.45,5.2-16.96,2.13-5.5,2.77-11,2.69-16.81-.04-2.86,1.07-5.82,4.49-6.44,3.3-.61,5.49,1.11,6.2,4.3,1.31,5.94,2.05,12.02,3.68,17.87,2.89,10.4,4.59,21.2,11.3,30.32,2.91,3.95,4.34,8.99,6.39,13.56,2.06,4.62,4.25,9.21,6,13.95,1.15,3.12,1.62,6.49,2.42,9.74.1.41.24.9.53,1.17,5.76,5.33,6.04,13.26,9.45,19.64,2,3.73,5.55,6.6,8.22,10.01,1.31,1.67,3.33,3.85,3.08,5.5-1.38,8.98,4.6,15,8.39,21.74,4.88,8.69,10.74,16.82,15.86,25.38,1.52,2.55,1.63,5.92,3.05,8.56,1.11,2.07,3.6,3.38,4.82,5.42,2.76,4.61,4.94,9.56,7.67,14.18,7.81,13.2,15.83,26.27,23.69,39.44,6.98,11.7,13.77,23.5,20.78,35.17,5.64,9.41,11.52,18.67,17.2,28.05,6.29,10.38,12.49,20.83,18.7,31.26,4.73,7.93,9.37,15.92,14.17,23.81.64,1.05,2.04,1.62,2.98,2.52,1.43,1.38,2.77,2.85,3.64,3.76,2.31-.75,5.26-2.72,7.53-2.13,1.94.51,3.11,3.97,4.62,6.12,2.42,3.46,2.26,8.64,7.41,10.39.99.34,1.71,3.05,1.63,4.62-.12,2.55.05,3.58,3.15,3.52,2.28-.04,6.57.44,2.49,4.69-.55.57-.62,2.68-.22,2.92,4.75,2.83,1.29,10.22,7.66,11.97-1.3,1.72-2.15,2.85-3.65,4.83,3.4-.53,6.05-.94,8.55-1.33,4.18-6.29,9.46-11.47,16.88-14.64,2.29-.98,3.81-3.85,5.59-5.94,2.55-3,4.7-8.26,7.58-8.67,6.63-.96,8.96-5.79,10.7-10.16,1.26-3.16,2.12-5.65,5.18-7.18,1.78-.89,3.44-2.03,5.57-3.3-.46-4.23,13.31-16.21,17.51-15.5,4.39-5.18,8.16-9.97,12.38-14.33.89-.92,3.5.04,5.2-.34,1.45-.33,3.52-1.05,3.95-2.14,1.1-2.78,1.3-5.91,2.16-8.81.31-1.03,1.3-2.27,2.27-2.62,4.11-1.47,7.87-3.17,8.57-9.29,4.46,6.92,7-.26,11.52.62-2.31-3-4.03-5.23-5.75-7.46.26-.36.52-.73.78-1.09,1.66.54,3.32,1.08,5.6,1.83.73-1.84,2.12-3.94,2.25-6.13.12-1.95-.85-4.08,1.97-4.38,1.24-.13,3.71.88,3.7,1.3-.07,1.74-.87,3.46-1.54,5.65.76-.19,2.59-.08,3.15-.87,1.93-2.73,3.24-5.88,5.12-8.66,1.63-2.41,3.69-4.52,5.68-6.92-.96-.33-2.66-.6-3.98-1.47-1.12-.74-2.56-2.25-2.44-3.25.13-1.09,2.03-2.95,2.91-2.82,6.68.98,10.08-1.93,11.95-8.18.43-1.45,3.79-2.03,6.33-3.26.69-8.65,6.69-14.64,14.02-20.1,6.97-5.19,14.48-10.16,17.41-19.15.08-.25.43-.4.58-.54,1.79.45,3.52.88,5.32,1.33-1.24-1.93-2.92-3.34-2.81-4.61.5-6.06,3.69-8.27,12.11-8.85.18-1.2.38-2.47.57-3.74.39.19.79.38,1.18.58,1.11-1.75,2.59-3.38,3.25-5.29,1.72-4.97,3.33-6.15,8.55-5.27-.76-3.21-1.84-6.65,3.39-6.79.44-.01.87-.56,1.31-.85,1.34-.85,2.68-1.69,4.02-2.53.16.32.33.65.49.97.49-2.2.58-4.6,1.55-6.56,2.3-4.62,6.76-3.13,10.24-2.42,3.29.67,3.76.55,2.86-2.76-.48-1.78.25-3.88.49-6.41-.38-.35-1.44-1.33-3.69-3.41,3.2-.91,5.46-1.56,7.05-2.01.41-1.65.51-3.82,1.48-5.46,1.03-1.74,3.94-.51,4.31,1.75.12.73,0,1.5.04,2.24.04.72.17,1.44.27,2.31,3.8.46,5.69-7.4,10.55-1.7.44-1.5.74-2.54,1.14-3.88h-7.17c1.06-2.56,1.66-5.05,3.1-6.87.43-.54,3.34.5,4.87,1.28,3.4,1.73,9.04.69,11.09-2.65.35-2.11.69-4.22,1.15-7.04-.82.21-3.11.47-3.13.84-.32,6.28-4.55,5.78-9.08,5.53-.29-2.77-.8-4.85,3.16-5.47,3.11-.49,5.75-2.65,5.71-4.88,4.56-3.63,8.25-6.57,12.45-9.92-1.86-5.33,2.35-9.66,5.01-14.39.5-.9,3.03-1.44,4.22-1.01,2.9,1.05,4.33,3.35,3.11,6.59-.61,1.63-1.35,3.21-2.26,5.37,3.98-1.26,4.48-2.1,7.66-11.56-2.96-1.11-5.92-2.23-8.88-3.34-.03-.49-.06-.98-.1-1.47,1.78-.82,3.62-1.54,5.3-2.52.85-.5,2.12-1.6,2.01-2.24-1.33-8.08,5.76-10.32,9.84-14.67,1.62-1.72,2.8-3.86,4.15-5.83,1.22-1.79,2.17-3.84,3.66-5.35.93-.94,2.75-1.63,4-1.42.79.13,1.34,2.08,1.89,3.27.36.78.54,1.65.85,2.62-1.08,1.17-2.21,2.39-3.53,3.82,4.54.62,11.37-6.86,11.84-12.42q4.51-.93,7.04,4.24c.6-1.75,1.86-3.57,1.68-5.23-.47-4.37.76-6.72,5.35-7.73,4.82-1.06,5.75-3.9,4.03-8.7-.26-.74.62-2.16,1.35-2.92,1.37-1.43,3.09-2.5,4.5-3.89,2.09-2.06,3.78-3.89,7.44-3.55,3.35.31,6.88-1.25,11.93-2.32.91-1.75,2.61-5.01,4.31-8.26.13-.24.26-.64.44-.67,8.22-1.35,9.42-9.03,12.93-14.53,2.75-4.31,4.98-8.94,7.54-13.38,2.58-4.46,8.84-5.97,13.7-3.8,1.78.79,4.04,1.02,6.01.82,6.11-.61,11.39,2.22,12.94,7.95.54,1.99-.46,4.4-.81,7.01,1.07.39,2.91.79,4.47,1.7,1.52.89,2.75,2.29,4.57,3.86-2.14,2.25-3.88,4.08-5.21,5.48,2.26,1.34,5.31,2.23,6.67,4.26,1,1.49.2,4.64-.64,6.71-.5,1.23-3.01,2.83-3.99,2.48-4.97-1.75-6.69.14-6.69,4.88,0,.65-.51,1.29-.39.99,2.9,2.12,5.82,3.59,7.73,5.91,1.22,1.48,1.92,4.67,1.15,6.29-2.8,5.96-3.8,12.08-4.16,18.58-.4,7.28-.34,14.96-2.72,21.67-5.42,15.29-4.86,31.81-10.6,46.91-1.29,3.39-2.42,6.62-1.76,10.3.11.59-.35,1.46-.81,1.93-1.73,1.76-2.74,3.18-1.21,5.98.85,1.54.3,4.69-.8,6.32-3.96,5.85-4.26,12.3-4.41,18.96-.04,2.01-1.25,4-1.95,5.99-.48,1.37-1.22,2.69-1.48,4.1-1.29,7.15-1.95,14.47-3.82,21.46-2.16,8.08-5.51,15.83-8,23.83-1.25,4.01-1.65,8.27-2.63,12.37-1.29,5.35-2.91,10.63-4.14,15.99-1.46,6.37-4.45,12.44-3.98,19.22.05.7-.05,1.62-.46,2.11-3.27,3.83-2.7,8.45-3.3,12.99-.64,4.92-2.82,9.64-4.26,14.46-.3,1.01-.34,2.11-.46,3.17-.17,1.55.02,3.22-.53,4.62-1.05,2.7-2.98,5.14-.13,8.01.4.4-.34,2.89-1.17,3.39-3.69,2.2-2.83,5.44-2.12,8.45,1.24,5.22-.28,9.98-3.29,13.73-1.96,2.44-2.37,3.8-.76,6.2.43.64.23,1.71.36,2.93-3.49.1-3.73,2.07-3.82,5.1-.1,3.46-1.59,6.88-2.5,10.38,4.24,1.61,4.25,2.14,1.39,6.68-.94,1.5-.75,3.68-1.21,5.52-1.82,7.12-4.37,14.13-5.39,21.36-1.76,12.4-2.45,24.96-3.84,37.42-.96,8.6-2.35,17.15-3.52,25.72-.64,4.67-1.04,9.37-1.91,13.99-.38,2.02-1.65,3.88-2.61,6.03,0,2.8.31,6.06-.06,9.25-1.36,11.67-2.89,23.32-4.49,34.96-.29,2.11-1.3,4.11-1.9,6.19-.84,2.91-1.86,5.79-2.33,8.76-.81,5.16-.08,10.28.47,15.47.45,4.25-1.09,8.69-1.62,13.06-.2,1.64.33,3.44-.13,4.97-.73,2.46-2.01,4.77-3.22,7.5.13.35,1.24,1.76.94,2.74-1.75,5.8-3.12,11.62-3.97,17.65-.7,4.94-2.57,9.71-3.84,14.58-.33,1.27-.22,2.65-.57,3.91-.81,2.97-1.9,5.86-2.62,8.84-.59,2.45-.61,5.03-1.22,7.47-.89,3.55-2.08,7.03-3.29,11.02,2.68,2.49,2.59,5.96-.52,9.42-.87.96-.38,3.09-.65,4.65-.47,2.65-.5,5.57-1.73,7.83-1.19,2.18-1.67,4.03-1.96,6.53-.63,5.46-2.68,10.74-3.86,16.15-.66,3.04-.42,6.29-1.17,9.3-2.53,10.29-5.75,20.44-7.89,30.81-2.1,10.19-3.1,20.61-4.77,30.9-1.31,8.05-3.85,16.01-4.1,24.07-.23,7.75-3.26,15.81.9,23.45.24.43.36,1.16.17,1.57-2.93,6-2.96,12.45-3.3,18.93-.52,10.01-1.33,20-2.34,29.97-.7,6.9-3.17,13.85-2.54,20.57.5,5.31-.55,10.08-1.02,15.08-.13,1.39-.1,2.81-.45,4.15-2.13,8.3-2.66,16.74-2.82,25.28-.11,6.04-.6,12.11-1.52,18.07-1.09,7.04-4.7,9.27-12.99,10.36-6.2.82-12.26,2.63-18.42,3.81-3.59.69-7.29.84-10.88,1.52-5.29,1-10.48,2.79-15.8,3.21-4.13.33-8.38-.89-12.57-1.48-14.82-2.11-29.64-3.86-44.68-3.69-9,.1-18.16-.35-26.99-1.93-6.15-1.11-13.5-1.56-16.96-8.47-1.05-2.11-1.81-4.73-1.61-7.02.53-5.96,1.62-11.87,2.59-17.79,1.1-6.75,2.33-13.48,3.46-20.22.69-4.15,1.21-8.33,1.94-12.48,1.06-5.99,2.34-11.94,3.34-17.94.39-2.34.22-4.76.44-7.14.49-5.43.93-10.87,1.62-16.27,1.04-8.13,2.29-16.24,3.4-24.36.18-1.33.26-2.7.14-4.03-.54-6.11.4-11.61,6.49-15.33-3.26-2.36-1.64-3.71.64-4.88-.64-1.65-5.71-2.53-.56-5.1,2.42-1.2,1.4-4.37-.81-6.38-1.42-1.29-2.93-3.77-2.64-5.41.6-3.42-1.69-4.87-3.57-4.78-5.95.29-11.84,1.5-17.78,2.1-1.83.18-3.75-.47-5.62-.74,0-.45,0-.9,0-1.35-1.83,1.73-3.66,3.45-5.72,5.4-1.55-1.07-3.05-2.12-3.99-2.76-6.64,0-12.89-.1-19.14.06-2.02.05-4.05,1.16-6.03,1.05-2.54-.13-5.03-1.04-7.56-1.54-.93-.18-2.37-.58-2.8-.13-5.67,5.89-11.47-.05-17.17.25-.21.01-.48-1.01-1.25-2.71-.65,1.23-.89,2.18-1.5,2.7-.94.8-2.39,2.07-3.16,1.81-3.43-1.2-6.69-2.87-10.36-4.53-4,3.76-8.94,1.94-13.58,0,.44,5.61.96,10.76,1.21,15.92.15,3.21-.14,6.43-.16,9.65-.03,4.52-1.33,9.63.33,13.44,3.03,6.94-.66,12.5-1.51,18.66-.21,1.52.95,3.18,1.1,4.81.43,4.72.85,9.45.83,14.18,0,1.15-1.72,2.29-2.59,3.35.45.43,1.54.95,1.66,1.65.78,4.32,1.9,8.69,1.85,13.03-.08,7.43.72,14.65,1.9,21.99,1.01,6.3.36,12.94-.22,19.37-.26,2.85-2.04,5.32-1.86,8.67.2,3.68-3.03,5.5-7.23,4.66-.51,1.55-1.01,3.03-1.5,4.52-1.21,3.64-5.3,5.77-9.17,5.49-2.03-.15-4.23.71-6.22,1.46-5.63,2.11-11.18,4.41-16.79,6.58-.52.2-1.28.23-1.77,0-6.94-3.25-13.24.13-19.8,1.61-3.85.87-7.92.75-11.89,1.06-11.53.91-23.06,1.79-34.59,2.74-6.77.56-13.57.93-20.28,1.94-3.52.53-6.8,2.42-10.28,3.42-4.73,1.35-9.51,3.29-14.31,3.43-8.21.25-15.95,3.34-23.94,3.54-6.54.16-13.18-1.92-19.67-3.45-1.39-.33-2.94-2.37-3.39-3.92-1.6-5.56-4.81-10.67-4.1-16.94.26-2.33-1.82-4.83-2.28-7.36-1.14-6.35-2.53-12.74-2.8-19.15-.46-10.97-.16-21.97-.16-32.95,0-9.9-.33-19.83.16-29.71.31-6.11,1.9-12.15,2.88-18.23.26-1.6.51-3.21.56-4.82.28-9.04-.73-18.16,1.76-27.05.12-.42.16-.95,0-1.33-2.51-6,.13-11.44,1.79-17,.07-.24-.12-.57-.2-.93-5.32.49-10.64,1.38-15.96,1.34-4.96-.04-9.92-1.04-14.87-1.68-1.45-.19-3.12-1.23-4.26-.79-7.47,2.9-14.51-1.14-21.79-1.07-3.26.03-6.72,1.05-9.65-2.06-.96-1.02-3.93.17-5.62-.52-4.8-1.97-9.59-2.71-14.74-1.91-2.5.39-4.36.52-4.78,3.83-.4,3.13-1.94,6.1-2.98,9.15,4.97,1.41,6.94,5.26,4.14,9.87-2.38,3.91.59,6.34,1.45,9.32.57,1.96,2.6,3.6,2.88,5.54.92,6.57,1.44,13.21,1.93,19.83.66,8.88,1.88,17.59.32,26.71-1.47,8.62-.39,17.68-.32,26.54.05,7.31-.52,14.36-4.84,20.75-.89,1.31.03,3.91.26,5.9,1.25,10.91,2.49,21.87-.85,32.61-2.14,6.89-4.98,13.5-11.17,18.01-1,.73-1.75,1.99-2.27,3.16-1.6,3.62-4.49,5.27-8.2,5.81-1.17.17-2.47,0-3.49.48-9.75,4.54-19.67,3.57-29.9,1.89-4.92-.81-10.2.57-15.32.97-.44.03-.87.23-1.31.25-12.29.62-24.64,2.08-36.86,1.39-4.65-.26-10.01-.59-14.78-2.62-2.48-1.06-5.44-1-8.19-1.43-.44-.07-.95.1-1.34-.06-3.33-1.29-6.99-2.12-9.86-4.1-2.41-1.66-3.99-4.61-5.76-7.11-2.88-4.08,2.17-5.37,2.5-6.8-1.72-2.69-3.63-4.51-3.98-6.59-.25-1.48,1.59-3.31,2.29-4.61-1.1-3.76-2.23-7.77-3.46-11.75-.84-2.73-2.32-5.36-2.65-8.13-.57-4.8-.45-9.67-.66-14.51-.06-1.36.28-3.35-.47-3.96-3.03-2.49-2.28-5.3-1.69-8.43.41-2.19.36-4.57.03-6.79-.95-6.42,2.67-12.98-1.36-19.52-1.25-2.03.84-6.14,1.44-9.29.87-4.59,1.78-9.17,2.67-13.75.37-1.92.71-3.85,1.19-6.43-3.88-2.21-1.79-6.45-.95-9.78.86-3.42.5-6.35-.05-9.63-.42-2.48.68-5.19.55-7.77-.1-1.97-1.01-3.91-1.63-5.84-1.53-4.74.68-9,1.5-13.48,1.03-5.62,1.6-11.32,1.86-17.31-2.11,4-5.24,4.46-8.99,3.9-1.19-.18-2.51.76-3.8.86-3.23.27-6.47.35-10.42.55.27-.38.04.26-.41.52-4.99,2.95-9.84,6.25-15.11,8.58-2.78,1.23-6.35.57-9.52,1.07-3.44.54-6.82,1.41-10.22,2.18-.71.16-1.48.9-2.03.73-5.99-1.78-10.99,4.12-18.23.87,1.62,8.27,2.96,15.09,4.29,21.92.06.29.07.6.04.9-1.49,12.73,3.8,24.94,2.82,37.67-.19,2.5,1.14,5.1,1.67,7.68.89,4.36,2.1,8.72.06,13.13-.28.61-.06,1.48,0,2.23.27,3.4.59,6.79.85,10.19.64,8.41,1.29,16.82,1.87,25.24.13,1.81.02,3.63.02,5.44,5.78,1.63,7.69,3.57,7.91,9.68.21,5.92-3.5,9.39-8.54,11.07.19,3.59.87,6.89.36,10-.33,2.03-2.1,5.05-3.72,5.41-6.7,1.51-13.59,2.18-20.4,3.16-1.22.18-2.86-.04-3.58.67-3.87,3.76-8.36,2.99-12.96,2.36-1.38-.19-2.87.09-4.25.38-2.28.48-4.55,1.07-6.76,1.79-1.07.35-2.46.85-2.92,1.71-2.11,3.96-4.8,4.87-8.49,2.37-4.42-2.99-9.22-3.23-13.14-.08-5.18,4.17-11,2.93-16.17,2.09-3.49-.57-6.06.67-9.05.92-5.58.46-11.18,1.23-16.75,1.08-1.62-.04-4.21-2.55-4.51-4.26-.4-2.24.96-4.83,1.72-7.21.19-.59,1.02-.98,1.11-1.06-.51-2.89-.58-5.45-1.47-7.68-.8-2.02-2.59-3.62-3.78-5.51-.66-1.06-1.56-2.44-1.37-3.49.7-3.79.55-7.03-3.21-9.2-.59-.34-1.07-1.07-1.34-1.73-2.42-5.89-5.12-11.69-7.09-17.73-2.49-7.63-4.28-15.47-6.53-23.18-1.8-6.17-3.97-12.23-5.69-18.42-1.32-4.74-2.16-9.61-3.29-14.4-.22-.95-.8-1.82-1.24-2.72-1.32-2.68-3.15-4.74-2.21-8.57.81-3.29-1.26-7.25-1.93-10.93-1.24-6.8-2.33-13.62-3.6-20.42-1.52-8.19-3.21-16.36-4.73-24.55-.48-2.59-.66-5.24-.95-7.67-1.71.42-3.51.86-4.41,1.08-6.07-4.55-2.04-9.24-1.46-13.73,1.08-8.42,1.71-16.6-1.97-24.79-1.8-4.01-1.64-8.86-2.71-13.25-.92-3.77-2.41-7.4-3.5-11.14-1.3-4.47-2.42-9-3.63-13.5-.94-3.48-2.12-6.92-2.79-10.45-.79-4.18-.09-9.02-1.98-12.54-2.29-4.27-.83-10.16-6.21-13.32-1.34-.78-.99-5.39-.53-8.09,1.07-6.19.42-11.9-2.84-17.33-.88-1.46-1.52-3.19-1.79-4.87-.76-4.63-1.63-9.3-1.79-13.97-.23-6.29-1.48-12.37-2.82-18.44-1.08-4.9-3.04-9.61-3.95-14.53-.89-4.77-.85-9.71-1.41-14.55-.8-6.97-.64-14.33-2.96-20.77-3.1-8.58-3.69-17.37-5.1-26.12-.07-.44.04-.92-.07-1.34-2.38-8.94-4.66-17.9-7.24-26.78-.66-2.26-2.78-4.12-3.31-6.39-1.51-6.4-2.26-12.99-3.87-19.36-1.06-4.18-3.39-8.03-4.62-12.19-1.18-4-1.62-8.21-2.49-12.31-.47-2.22-.97-4.48-1.81-6.58-1.51-3.79-4-7.35-1.86-11.72.24-.48.29-1.42,0-1.74-6.23-6.65-4.1-15.97-7.49-23.53-.62-1.37-.24-3.19-.32-4.81-.06-1.22.35-2.8-.26-3.6-2.7-3.52-4.26-7.15-4.87-11.76-.65-4.91-1.25-5.38,3.72-7.23-1.09-5.28-2.06-10.57-3.28-15.8-2.03-8.74-4.29-17.43-6.33-26.17-1.58-6.78-2.94-13.62-4.48-20.42-.45-1.98-1.36-3.87-1.73-5.86-1.3-6.96-2.2-14.01-3.75-20.91-1.26-5.61-3.26-11.05-4.87-16.58-1.3-4.46,1.49-7.8,5.95-7.02.96.17,2.18,1.01,2.6,1.87,2.51,5.2,5.1,10.18,5.77,16.3.58,5.28,3.69,10.33,5.93,15.38,5.93,13.41,12.16,26.68,17.91,40.16,3.4,7.97,6.03,16.27,9.16,24.37,4.55,11.76,8.28,23.77,11.62,35.92,1.6,5.83,3.55,11.57,5.1,17.42.38,1.42-.58,3.16-.31,4.65,1.52,8.34,4.58,16.28,4.54,25.06-.02,4.82,2.91,9.61,4.22,14.49,1.65,6.17,2.96,12.43,4.5,18.63.45,1.8,1.38,3.49,1.81,5.29,1.84,7.77,3.58,15.56,5.34,23.34.1.43-.15,1.13.07,1.31,6.42,5.22,2.3,13.15,5.01,19.55,2.54,6,2.6,13.03,4.01,19.56.38,1.75,2.2,3.2,2.52,4.94,1.4,7.48,2.31,15.06,3.8,22.52.49,2.44,2.22,4.61,3.33,6.94.43.9.86,1.84,1.02,2.81,1.24,7.51,2.2,15.08,3.69,22.55,1.13,5.66,3.08,11.16,4.37,16.79,1.27,5.55,2.1,11.21,3.29,16.78.36,1.69,1.11,3.36,1.93,4.89,2.69,5.02.28,11.44,5.29,16.19,1.77,1.68.28,6.81.28,10.5,1,.55,2.39,1.3,4.19,2.28-2.91,2.82-3.86,5.36-.61,8.11.72.61.9,2.12.94,3.23.14,3.51-.58,7.14,2.95,9.76.75.55.52,2.46.68,3.76.9,6.94,1.65,13.9,2.78,20.81.28,1.7,1.93,3.13,2.69,4.8.75,1.66,2.16,4.21,1.53,5.07-2.3,3.11-.34,5.43.73,7.85,2.66,5.99,3.72,12.17,4.27,18.71.37,4.4,3.22,8.57,4.72,12.92,1.47,4.25,2.62,8.61,3.97,12.91.51,1.63,1.34,3.19,1.71,4.84.98,4.38,1.61,8.85,2.71,13.2,1.32,5.23,3,10.36,4.5,15.54.12.43.18.89.16,1.34-.36,7.74,5.61,13.17,7.29,20.12.55,2.27.84,5.72-.42,7.06-2.63,2.79-1.49,5.05-.6,7.66,1.97,5.84,1.36,7.8-3.93,11.67,5.04,2.43,6.35,6.51,5.75,11.69-.39,3.38.41,6.06,3.82,8.48,3.37,2.39,3.22,7.12,2.87,11.3-.13,1.51.53,3.09.85,4.63.06.27.36.49.4.76.86,6.15,2.08,12.4-1.77,18-.97,1.41-2.83,2.19-4.68,3.55,1.03.43,1.86.74,2.66,1.12,3.74,1.8,4.32,6.82.77,9.37-2.5,1.8-2.29,2.9-.82,3.95,2.45-1.38,4.45-2.5,6.44-3.63-.13-.09-.25-.18-.38-.26,1.4-1.14,2.72-3.14,4.2-3.26,5.12-.39,10.39-.8,14.96,2.62.84.63,2.1.69,4.27,1.35-5.05-4.42-9.1-8.18-8.37-14.34.15-1.29,1.37-3.16,2.48-3.49,3.76-1.13,7.66-2.07,11.57-2.4,6.82-.59,13.69-.79,20.54-.88,1.98-.03,3.97.87,5.95,1.39.99.26,1.95.84,2.94.89,5.08.24,6.64-2.36,4.77-7.4-.79-2.13-1.31-4.42-1.54-6.68-.72-7.19-1.44-14.38-1.78-21.59-.29-6,.33-12.06-.14-18.04-.9-11.29-2.21-22.56-3.6-33.8-.25-2.05-1.65-3.99-2.6-5.93-4.99-10.23-5.08-20.79-2.59-31.69,1.01-4.42,1.31-9.04,1.63-13.59.35-5,1.63-6.35,6.56-6.68,2.62-.17,5.35-.44,7.75-1.37,1.6-.61,3.14-2.25,3.95-3.82,1.58-3.05,3.59-3.91,6.37-2.01,2.56,1.75,4.43,1.66,7.56.44,5.09-1.97,10.84-2.36,16.37-3.03,4.97-.6,10.08-.25,14.97-1.14,3.37-.61,6.47-2.68,9.73-3.99,2.99-1.2,5.96-3.9,9.21-.42.27.29.87.53,1.23.44,4.05-.98,8.44-1.36,12-3.27,3.26-1.74,5.91-2.06,9.09-.72.69.29,1.55.49,2.27.38,6.03-.97,12.01-2.39,18.07-2.89,3.24-.27,6.83.47,9.85,1.74,4.74,1.99,9.25,2.13,14.14.96,5.32-1.27,9.54,1.64,9.19,5.89-.05.59.07,1.49-.26,1.72-6.47,4.63-4.8,12.04-5.85,18.26-2.33,13.89-3.87,27.97-2.78,42.09.55,7.14,2.28,14.18,3.16,21.3.24,1.9-.08,4.36-1.14,5.83-3.23,4.47-2.21,8.07-.12,12.91,2.24,5.21,4.31,11.22,2.31,17.35-.18.56-.71,1.13-.63,1.62.75,4.85,1.55,9.68-3.13,13.15,5.99,4.73,6.33,7.35,3.5,13.44.18,2.07.59,4.15.51,6.21-.2,5.33-.61,10.66-.95,15.98-.13,2.03-.32,4.05-.51,6.42,3.07-.51,6.23-1.36,9.43-1.49,5.63-.24,6.79,1.88,3.77,7.41,7.89-1.69,15.38-3.3,22.86-4.91,1.27-.27,2.55-.72,3.83-.74,7.04-.07,14.1-.24,21.13.04,3.92.16,7.79,1.3,11.71,1.6,1.04.08,3.13-1.3,3.14-2.04.08-5.32,3.8-5.68,7.58-6.09.21-1.5.41-2.98.63-4.55-3.79.06-4.08-2.71-3.37-5.1,1.1-3.72,2.28-7.09.94-11.17-.61-1.86.98-4.45,1.68-7.11-4.05-1.79-1.18-5.48-.45-8.91.19-.89-.13-1.9-.25-2.86-.03-.29-.26-.58-.24-.85.41-4.72.85-9.44,1.27-14.16.16-1.82.15-3.67.5-5.46.35-1.78,1.06-3.48,1.56-5.04-.52-3.05-1.13-6.22-1.58-9.4-.39-2.77-.76-5.57-.85-8.36-.13-4.18-1.03-8.89,6.12-9.78-1.82-1.97-3.42-3.1-4.13-4.64-1-2.16-2.51-5.13-1.77-6.88,2.92-6.88,1.02-13.88,1.43-20.79.36-6.04.08-12.11.08-18.17,0-8-.1-16,.04-24,.08-4.75.03-9.59.94-14.21.89-4.52,2.83-4.78,7.29-3.27,2.1.71,4.66-.07,6.99.11,2.82.22,5.65.58,8.42,1.17,5.74,1.23,11.11,4.29,17.34,3.02,1.3-.26,2.92.27,4.19.87,1.1.52,1.9,2.37,2.85,2.39,4.13.07,8.28-.24,12.4-.58,1.55-.13,3.06-1.01,4.59-1.03,6.89-.12,13.8.15,20.68-.1,12.45-.45,24.9-1.06,37.33-1.82,4.23-.26,8.43-1.6,12.64-1.6,3.75,0,7.57.94,11.24,1.92,2.9.77,4.15,6.52,3.19,11.6-.55,2.89-.47,5.89-.86,8.82-.75,5.58-1.79,11.13-2.4,16.72-.23,2.12.66,4.34.58,6.49-.52,15.77-1.23,31.54-1.74,47.31-.67,20.27-1.25,40.53-1.78,60.8-.11,4.3-.27,8.44,1.44,12.81,1.28,3.27,2.29,4.78,5.66,4.26,4.99-.78,8.95,1.32,12.88,4.06,1.12.78,3.15.29,4.76.26.53-.01,1.05-.61,1.59-.65,8.11-.65,16.22-1.18,24.32-1.88,4.25-.37,8.46-1.18,12.71-1.49,2.13-.16,4.31.43,6.48.53,3.79.18,7.59.39,11.37.28,2.16-.06,4.29-.84,6.46-1.07,8.34-.89,16.69-1.74,25.05-2.5,5.17-.47,10.36-.92,15.55-1.06,3.78-.11,4.75-1.98,4.45-5.34-.12-1.37.18-2.79.35-4.18.86-6.97,2.02-13.92,2.52-20.91.44-6.1-.05-12.26.22-18.37.44-10.16,1.19-20.31,1.73-30.46.38-7.14.5-14.3.98-21.44.21-3.18,1.07-6.32,1.48-9.5.17-1.28-.02-2.61-.12-3.92-.13-1.77-.51-3.53-.48-5.29.24-11.8.58-23.6.85-35.4.06-2.4-.22-4.83.03-7.21.39-3.72,3.89-4.65,6.27-4.17,9.56,1.94,19.05,3.82,28.84,4.53,6.61.48,13.05,3.52,19.66,3.98,5.64.39,11.42-1.25,17.13-2.01.58-.08,1.2-.53,1.69-.4,2.9.8,6.09,2.94,8.56,2.28,2.81-.74,5.07-1.63,8.07-.68,2.22.71,4.81.25,7.23.37,1.13.06,2.57-.15,3.33.45,5.13,4.02,10.77,3.08,16.57,2.33,3.83-.5,7.78-.47,11.64-.22,4.85.32,9.66,1.14,14.5,1.69,5.56.64,11.15,1.09,16.69,1.86,5.07.7,10.15,1.51,15.13,2.65,4.73,1.08,7.04,4.77,6.28,9.42-.45,2.74-1.35,5.42-1.7,8.16-.74,5.86-1.23,11.76-1.87,17.63-.19,1.74-.5,3.47-.83,5.19-1.19,6.17-2.65,12.31-3.53,18.53-.5,3.55.18,7.25-.15,10.84-.72,7.77-2.03,15.49-2.57,23.27-.86,12.3-1.09,24.64-1.99,36.93-.39,5.34-1.86,10.58-2.67,15.9-.37,2.45-.35,4.95-.49,7.2,5.67,3.98,12.1,3.21,18.52,3.55,13.56.73,27.05,2.65,40.61,3.25,8.36.37,16.8-.79,25.2-1.25,2.53-.14,5.09-.49,7.59-.27,3.18.28,4.47-1.54,4.77-4.05.79-6.45,1.21-12.95,1.91-19.41.82-7.71,1.79-15.4,2.67-23.1.63-5.57,1.07-11.16,1.86-16.71.57-4,1.73-7.91,2.38-11.9.36-2.21.17-4.51.33-6.76.44-6.05.89-12.09,1.42-18.13.67-7.61,4.55-14.65,3.22-22.73-.61-3.71,1.15-7.77,1.55-11.71.48-4.74.5-9.53,1.02-14.26.47-4.32,1.19-8.63,2.03-12.9,1.92-9.75,3.2-19.72,6.23-29.12,2.47-7.68.76-16,4.63-23.28.74-1.39,1.69-3.29,1.29-4.56-2.36-7.49,3-13.68,3.14-20.85.16-8.01,2.1-15.98,3.29-23.96.26-1.73.16-3.71.99-5.13,4.04-6.93,1.6-14.83,3.55-22.01,2.51-9.27,1.03-19.39,6-28.12.14-.25.18-.57.21-.87.92-7.42,1.78-14.85,2.76-22.27.48-3.62,1.21-7.2,1.71-10.82.2-1.49-.15-3.08.16-4.53,1.25-5.86.97-12.25,4.51-17.51ZM460.37,772.69c17.19,15.67,34.14,31.12,51.09,46.57.37-.37.74-.74,1.11-1.11-2.61-3.04-5.14-6.15-7.85-9.1-2.38-2.59-4.96-4.99-7.45-7.48-8.05-8.05-16.03-16.16-24.16-24.12-3.32-3.25-6.83-6.5-12.75-4.76ZM221.88,660.8c2.45-4.54,3.44-7.85,1.24-12.25-3.39-6.79-5.5-14.22-8.15-21.39-.71-1.92-1.38-3.85-2.07-5.78-.41.12-.81.24-1.22.36,3.33,12.76,6.66,25.51,10.2,39.05ZM723.36,287.99c-1.78,7.67-3.39,14.59-5.36,23.07,4.87-2.32,8.53-4.06,11.96-5.69-2.21-5.82-4.24-11.16-6.6-17.38ZM891.05,1221.47c0-.46-.02-.92-.02-1.38-.74,0-1.48-.03-2.22,0-13.15.59-26.31,1.12-39.45,1.91-1.35.08-2.6,1.73-3.89,2.65l.6,1.21c14.99-1.47,29.99-2.93,44.98-4.4ZM457.1,769.73c-1.23-10.43-9.79-13.88-14.72-19.76-1.2,1.7-2.24,3.16-3.17,4.46,5.51,4.71,11.26,9.63,17.89,15.3ZM570.58,830.27c-.39-.35-.79-.69-1.18-1.04-1.59.65-4.01.89-4.56,2.04-.64,1.33.32,3.46.65,5.22.26,1.39.65,2.76.94,4.15.31,1.52.56,3.06.84,4.58.29-.04.57-.07.86-.11.82-4.95,1.64-9.9,2.45-14.85ZM825,1228.78c-1.59-3.36-4.25-3.97-7.09-2.96-.89.32-1.15,2.37-2.01,4.35,3.73-.57,6.3-.97,9.1-1.4ZM425.15,734.76c-.58.26-1.16.52-1.74.77,1.25,2.51,2.44,5.05,3.88,7.44.09.15,2.11-.86,2.9-1.19-1.9-2.64-3.47-4.83-5.04-7.02ZM367.63,1226.33v9.3c1.91-.44,3.8-.87,4.67-1.07-1.42-2.51-2.88-5.07-4.67-8.22Z"/>
        <path class="cls-1" d="M1104.13,413.44c-4.32,2.5-8.28,6.02-14.01,4.04-1.37-.47-3.47-.21-4.71.56-3.81,2.38-6.8.35-10.19-.97-2.24-.87-4.89-.68-7.36-1.01-5.5-.72-11.14,1.48-16.63-1.51-2.51-1.37-5.91-1.08-8.82-2.13-1.68-.13-4.13,4.02-4.8-1.54-4.18,0-4.31-7.4-10.45-5.18-2.22.8-6.56-2.37-8.97-4.72-1.57-1.52-6.74-2.53-3.47-7.48-1.46.59-2.92,1.18-4.53,1.84-.83-1.12-1.69-2.29-2.68-3.63-4.71,2.22-3.73,6.59-4.16,10.63-2.43.23-4.57,1.27-5.88-2.34-.73-1.99-3.18-3.41-4.97-4.94-2.61-2.24-5.79-3.99-7.82-6.65-1.41-1.84-1.37-4.84-1.81-7.35-.15-.83.06-1.79.34-2.62,1.44-4.35,2.64-8.23,1.87-13.41-1.1-7.45.95-15.31,4.31-22.49,1.69-3.61,2.69-7.54,4.25-11.21,2.18-5.15,5.01-10.05,6.78-15.32,1.82-5.41,2.71-11.13,3.99-16.72.1-.43-.07-1.02.16-1.32,5.95-7.62,7.04-17.24,9.87-25.98,1.67-5.15,2.91-9.93,7.39-12.89,3.2-2.11,7.1-3.12,10.56-4.87,6.59-3.34,13.68-4.66,20.91-5.41,6.29-.65,12.7-2.2,18.86-1.54,8.01.86,16.4,2.33,23.52,5.81,5.31,2.59,9.27,8.46,13.09,13.44,3.83,4.99,6.81,10.4,7.6,17.18.35,2.97,3.52,5.92,3.2,9.82-.26,3.14.09,6.32-.15,9.46-.08,1.07-1.14,2.07-1.78,3.13,1.1.75,2.4,1.64,4.56,3.1-2.86,1.99-5.23,3.64-7.27,5.06.42.21,1.67.83,3.56,1.79-5.54,4.58-10.2,9-17.88,9.02.37,1.12.85,2.56,1.5,4.5-1.63,1.07-3.65,2.4-5.85,3.85,3.14,1.6,7.02,3.18,10.45,5.45,3.03,2,5.91,4.47,8.25,7.25,4.29,5.11,8.88,10.09,10.08,17.17.33,1.95,2.5,3.53,3.41,5.47,3.4,7.2,2.87,14.95,2.61,22.58-.06,1.7-1.78,3.29-2.48,5.03-1.17,2.9-1.59,6.28-3.35,8.7-1.22,1.67-4.11,2.54-6.39,2.91-2.16.35-4.63-2.5-6.45,1.56-.6,1.33-4.13,1.35-6.32,1.97-.65.64-1.29,1.29-1.94,1.93ZM1027.58,311.61c.42-.05.84-.1,1.25-.14.82,2.27,2.37,4.58,2.25,6.8-.12,2.14-1.45,5.03-3.17,6.08-2.89,1.77-1.2,3.23-.91,5.14.3,2,.62,4.68-.41,6.07-2.86,3.88-5.14,7.62-5.26,12.72-.08,3.52-1.01,7.21-2.4,10.47-1.35,3.15-3.79,5.83-5.76,8.72.31,0,.62-.02.93-.03-.54,3.56-1.08,7.11-1.68,11.1,3.21-.78,5.87-2.26,8.18-1.83,7.69,1.44,15.35,3.22,22.83,5.51,8.51,2.61,16.95,5.18,25.95,5.11,3.62-.03,7.25-.2,10.85.04,8.66.57,16.44-.58,23.44-6.77,5.13-4.54,7.02-13.31,2.13-18.11-1.36-1.34-3.91-3.25-4.99-2.78-4.05,1.79-7.76.3-10.47-1.62-3.14-2.23-6.16-2.06-9.44-2.27-2.9-.18-5.81-.44-8.68-.92-1.65-.28-3.22-1.08-4.45-1.52.15-2.83.27-5.05.39-7.28-.37-.2-.74-.4-1.11-.6-1.75,1.75-3.46,3.55-5.26,5.25-.93.88-2.27,2.45-3,2.24-4.6-1.33-9.55-2.36-13.47-4.89-3.79-2.45-6.52-6.55-9.63-10.01-1.64-1.83-3.52-3.63-4.5-5.8-.85-1.89-1.51-4.81-.63-6.33,1.76-3.04,4.82-4.7,8.7-5.31,6.45-1.02,12.98-2.29,19.08-4.52,8.88-3.25,17.87-6.6,24.57-13.93,3.8-4.16,8.11-7.85,11.76-12.13,1.49-1.75,1.85-4.48,2.42-5.97-3.82-2.49-7.62-5.01-11.47-7.44-.69-.44-1.59-.65-2.42-.73-4.01-.42-8.04-.77-12.06-1.14-.3-.25-.76,1.45-1.48,1.57-2.49.42-5.2.81-7.6.25-3.41-.79-6.31-1.36-9.66.73-3.16,1.97-6.94,3.81-10.79-.28-.88,2.52-.98,5.5-2.35,6.3-5.59,3.27-3.87,9.35-6.02,13.88-2.2,4.65-3.82,9.58-5.69,14.38Z"/>
        <path class="cls-1" d="M1391.58,1166.41c-2.11-6.09-4.3-12.17-6.31-18.32-2.05-6.26-3.74-12.65-5.9-18.87-2.6-7.5-5.83-14.79-8.2-22.36-1.21-3.84-1.53-8.1-1.42-12.14.04-1.42,2.34-3.29,4.01-4.04,3.41-1.51,6.58-2.69,5.78-7.45-.14-.86.83-2.3,1.69-2.87,6.1-4.06,17.32-2.83,22.38,2.66,1.44,1.56,2.11,3.95,2.73,6.08.7,2.43,1.01,4.94,4.29,5.11.15,0,.36-.02.43.06,3.98,4.43,8.24,8.65,11.75,13.43,1.15,1.57.34,4.58.41,6.93.11,3.76.15,7.53.36,11.29.09,1.59.8,3.17.75,4.73-.1,2.96-1.37,6.03,1.39,8.54.27.24.47.94.32,1.21-3.1,5.43-.99,11.18-.55,16.62.61,7.45,3.41,14.74,3.87,22.19.52,8.49,6.25,15.25,6.88,23.15.36,4.49,2.94,7.2,3.9,10.86.63,2.41.17,5.32-.53,7.81-.62,2.19-2.24,4.1-3.48,6.24v10.87c-3.95-1.79-7.47-2.73-10.18-4.75-6.95-5.17-13.78-10.55-20.14-16.41-2.36-2.17-3.52-5.82-4.75-8.98-1.48-3.8-2.69-6.96-7.62-8-2.82-.59-4.94-4.17-7.54-6.2-1.69-1.32-3.68-2.26-5.52-3.4-.64-.4-1.52-.75-1.8-1.35-1.4-3.06-3.79-4.31-6.94-5.43-2.99-1.06-5.37-3.79-8.08-5.68-2.32-1.62-4.8-3.02-7.1-4.68-4.73-3.42-9.44-6.88-14.06-10.46-3.59-2.78-7.97-5.18-10.22-8.85-1.97-3.22-4.65-4.39-8.3-6.88,1.31,8.95,2.11,17.08,3.76,25.03,1.74,8.37,4.81,16.48,6.28,24.88.77,4.41-.91,9.2-1.01,13.83-.09,3.61.51,7.24.87,10.86.11,1.15.53,2.26.66,3.41.61,5.27,1.18,10.54,1.76,15.81.03.3.11.62.04.89-.72,2.59-.76,6.55-2.4,7.39-1.77.91-5.43-.53-7.56-1.97-4.11-2.79-7.92-6.1-11.44-9.61-1.52-1.52-1.67-4.33-3.03-6.1-5.76-7.46-6.89-16.63-9.73-25.16-2.06-6.17-4.84-12.2-6.04-18.53-1.46-7.7-4.97-14.84-4.97-23.02,0-6.88-2.2-13.73-3.05-20.64-.43-3.52-1.65-7.31,1.85-10.4,3.71-3.27,4.42-9.4,2.07-14.19-1.59-3.25.41-15.22,2.88-17.23,6.08-4.94,19.02-2.88,24.25,2.87,4.3,4.72,9.95,8.19,14.73,12.51,5.03,4.56,9.67,9.55,14.61,14.21,2.05,1.94,4.56,3.39,6.66,5.28,3.13,2.81,6.01,5.9,9.14,8.71,4.18,3.75,8.62,7.21,12.72,11.04,4.11,3.84,7.12,9.08,14.66,9.45Z"/>
        <path class="cls-1" d="M171.68,850.93c-1.41.36-2.59.5-3.62.97-.91.41-1.66,1.19-2.49,1.81,1.37,5.25.09,6.89-5.74,7.71-.9.13-2.06.8-2.49,1.56-2.33,4.12-7.41,6.46-7.59,12.07-.03.97-2.1,1.83-3.14,2.83-2.7,2.6-4.91,6.52-8.1,7.63-7.77,2.71-10.67,10.81-17.5,14.28-2.27,1.15-4.46,2.5-6.57,3.92-3.2,2.15-9.74-.27-13.53-4.74-.78-.91-2.33-1.67-3.51-1.66-4.12.06-5.45-3.4-7.09-5.88-.61-.93.98-4.02,2.33-5.39,2.57-2.6,5.96-4.38,8.49-7.01,5.06-5.26,9.69-10.94,14.66-16.29,2.88-3.09-.39-5.32-.86-8.82,1.78-.83,3.96-1.52,5.76-2.76,2.48-1.71,5.01-3.55,6.91-5.84,3.53-4.26,6.67-8.85,9.87-13.38.8-1.14,1.18-2.56,1.82-3.83,1.73-3.46,3.61-6.85,5.22-10.37,1.67-3.63,3.08-7.39,4.67-11.06,1.13-2.63,3.04-5.13,3.42-7.86.95-6.83,1.61-13.62,3.39-20.38.85-3.25-.72-7.58-2.28-10.9-2.22-4.72-5.37-9.03-8.34-13.36-.47-.68-2.06-.62-3.15-.83-3.25-.62-6.59-.92-9.72-1.91-2.19-.7-3.97-2.15-6.3-.18-.73.62-2.48.63-3.47.22-5.67-2.31-8.3.9-10.44,5.66,1.13.6,2.32,1.23,4.07,2.17-1.03.89-2.13,2.13-2.35,1.99-3.39-2.2-6.63-.33-9.95.07-1.27.16-2.79-.74-2.86,1.5-1.41-.38-2.83-.77-4.24-1.15l-.43.11c-1.33-.67-2.73-2.01-3.99-1.89-2.71.26-5.81.6-7.94,2.08-5.26,3.64-10.16,7.82-14.95,12.07-.96.85-1.52,3.17-1.09,4.43,2.38,7.06,1.8,14.89,6.1,21.5,1.58,2.43,1.72,5.81,2.51,8.76,1.51,5.61,2.74,11.31,4.57,16.82,3.06,9.23,6.48,18.34,9.8,27.48.54,1.49,1.15,3.02,2.05,4.32,3.7,5.33,3.96,11.33,3.25,17.39-.46,3.93-2.91,5.14-6.36,2.88-6.53-4.28-13.39-7.47-17.83-15.25-4.23-7.42-7.98-15.23-12.75-22.4-2.38-3.57-4.68-7.26-6.43-11.16-1.04-2.33-.86-5.18-1.35-7.78-.89-4.73-1.71-9.49-2.88-14.15-1.01-4.01-2.83-7.83-3.59-11.87-.5-2.67.2-5.58.44-8.37.15-1.77.45-3.53.61-5.3.07-.74-.36-1.7-.02-2.21,3.33-4.98.88-9.97-.17-14.79-.94-4.35-2.31-8.79-4.48-12.63-2.28-4.04-3.51-9.3-1.34-11.51,2.74-2.79,10.71-2.85,13.92-.03,1.46,1.28,2.99,2.58,4.09,4.16,1.69,2.41,3.13,1.58,5.72,1.42,4.55-.28,8.46-1.44,12.33-3.31,4.81-2.31,9.86-4.39,14.1-7.52,2.94-2.18,5.09-5.14,9.05-6.05,4.73-1.09,9.35-2.71,13.92-4.38,8.85-3.24,18.01-1.06,26.99-1.78,6.66-.54,11.99,2.37,16.95,6.26.91.71,1.35,2.05,1.95,3.13.63,1.13.9,2.68,1.82,3.38,5.93,4.46,9.16,10.98,13.14,16.9,2.8,4.18,6.2,8.4,7.39,13.09,1.1,4.31,4.42,8.57,2.05,13.73-.71,1.55.95,4.04.92,6.1-.09,6.38-1.22,12.83-.55,19.1.99,9.36-4.14,17.03-5.83,25.61-.83,4.23-3.36,8.13-5.21,12.13-.34.75-.98,1.5-1.68,1.91-2.84,1.69-2.78,1.57-.69,3.93.56.63.41,1.89.6,2.92Z"/>
        <path class="cls-1" d="M1104.13,413.44c.65-.64,1.29-1.29,1.94-1.93,1.62.08,3.25.15,4.98.23.88,3.21.32,6.27-2.91,6.72-2.31.32-4.43-1.91-4.02-5.02Z"/>
      </g>
    </g>
  </g>
</svg>